<svg width="1155" height="575" viewBox="0 0 1155 575" fill="none" xmlns="http://www.w3.org/2000/svg">
<path d="M294.867 574.887C295.785 574.223 296.704 573.559 297.622 572.895C307.167 565.991 316.711 559.085 326.256 552.183C331.564 548.344 337.044 544.66 342.179 540.592C346.94 536.819 350.781 531.816 352.504 525.938C356.092 513.693 349.972 501.21 342.315 491.901C334.331 482.194 323.976 474.506 313.114 468.301C301.562 461.701 289.731 455.555 278.034 449.215C254.424 436.417 230.812 423.622 207.201 410.824C195.263 404.353 183.354 397.823 171.375 391.427C159.786 385.239 148.753 378.454 139.199 369.343C129.914 360.487 121.564 349.542 117.906 337.081C116.097 330.919 115.549 324.214 117.47 318.007C119.339 311.964 123.526 307.075 128.986 303.949C139.374 298.003 152.494 298.252 163.9 300.443C176.908 302.943 189.217 308.427 200.452 315.345C211.836 322.354 222.865 329.991 234.052 337.312C245.292 344.667 256.53 352.028 267.768 359.389C290.299 374.147 312.829 388.908 335.356 403.673C357.594 418.248 379.835 432.816 402.076 447.385C424.257 461.915 446.442 476.44 468.616 490.981C473.483 494.173 478.289 497.509 483.423 500.266C489.025 503.274 494.981 505.628 501.073 507.437C513.316 511.071 526.178 512.514 538.928 512.239C551.915 511.959 564.868 509.876 577.309 506.144C589.474 502.494 600.604 496.894 611.855 491.117C635.481 478.987 659.122 466.886 682.729 454.72C693.997 448.913 704.845 442.506 714.894 434.749C725.07 426.893 734.426 417.929 742.493 407.911C758.669 387.824 770.743 361.829 767.046 335.492C765.261 322.776 759.524 311.055 750.667 301.764C741.797 292.459 730.205 286.087 718.005 282.278C693.489 274.625 666.538 276.462 642.026 283.125C629.295 286.586 616.938 291.453 605.236 297.543C593.678 303.559 583.263 311.004 572.896 318.84C562.606 326.617 550.818 332.01 537.941 333.647C524.76 335.324 511.29 332.783 499.95 325.75C494.826 322.572 490.538 318.583 486.362 314.27C481.834 309.591 477.221 304.994 472.648 300.359C463.146 290.728 453.636 281.102 444.127 271.477C439.613 266.908 435.164 262.247 431.529 256.93C427.823 251.508 424.809 245.616 422.495 239.473C417.767 226.919 415.937 213.289 416.806 199.921C418.49 173.998 430.856 148.228 451.907 132.556C462.509 124.663 475.192 119.718 488.441 119.049C501.626 118.383 514.771 122.019 525.824 129.211C531.118 132.655 535.792 136.897 539.921 141.664C544.111 146.501 547.658 151.844 551.494 156.956C559.226 167.26 568.006 176.681 578.247 184.541C599.528 200.875 625.599 209.243 652.366 209.239C679.24 209.235 705.577 201.421 729.717 190.018C754.13 178.485 776.226 163.069 797.334 146.361C818.451 129.647 839.441 112.769 860.5 95.9805C881.905 78.9164 903.305 61.847 924.709 44.7822C946 27.8076 967.293 10.8354 988.58 -6.14355C1009.88 -23.1348 1031.19 -40.123 1052.5 -57.1094C1073.72 -74.0327 1094.95 -90.957 1116.18 -107.883C1137.54 -124.922 1158.91 -141.968 1180.28 -159.004C1201.75 -176.117 1223.21 -193.232 1244.68 -210.349C1265.97 -227.329 1287.27 -244.313 1308.56 -261.293C1329.84 -278.257 1351.11 -295.22 1372.39 -312.183C1393.6 -329.092 1414.81 -346.002 1436.02 -362.912C1456.54 -379.274 1477.06 -395.637 1497.58 -412.001H1552.87C1533.75 -397.27 1514.62 -382.539 1495.5 -367.809C1473.86 -351.134 1452.21 -334.459 1430.56 -317.783C1408.99 -301.166 1387.43 -284.546 1365.86 -267.929L1301.24 -218.146C1279.75 -201.592 1258.26 -185.037 1236.77 -168.482C1215.17 -151.842 1193.57 -135.201 1171.97 -118.561C1150.25 -101.829 1128.53 -85.0975 1106.82 -68.3672C1085.28 -51.7735 1063.73 -35.1808 1042.2 -18.584C1020.55 -1.90411 998.9 14.7727 977.252 31.4502C955.582 48.1449 933.911 64.8395 912.241 81.5342C890.786 98.0635 869.33 114.593 847.874 131.122C826.528 147.567 805.519 164.591 783.492 180.123C761.478 195.647 737.74 209.108 712.46 218.545C687.482 227.869 660.66 233.196 633.935 231.07C607.062 228.933 581.452 218.899 560.353 202.113C550.085 193.945 541.032 184.397 533.142 173.931C529.324 168.866 525.557 163.67 520.801 159.427C516.138 155.266 510.615 152.092 504.678 150.141C492.382 146.099 478.854 147.736 467.587 153.981C456.601 160.071 448.119 170.169 442.863 181.475C437.264 193.521 435.352 207.147 437.165 220.291C438.919 233.006 444.379 244.691 453.067 254.142C461.828 263.67 470.841 272.981 479.722 282.398C484.414 287.375 489.114 292.345 493.788 297.338C498.09 301.933 502.248 306.906 507.29 310.716C517.028 318.073 529.574 320.22 541.417 317.777C547.579 316.506 553.473 314.028 558.764 310.635C563.595 307.535 567.892 303.634 572.456 300.166C593.483 284.187 617.602 272.169 643.055 265.1C668.067 258.153 695.064 255.739 720.573 261.442C745.54 267.024 768.999 281.54 779.733 305.543C790.798 330.285 785.497 358.714 773.427 382.024C761.406 405.24 742.869 424.864 721.929 440.304C711.436 448.04 700.213 454.571 688.585 460.436C677.082 466.237 665.559 471.999 654.047 477.782C642.445 483.61 630.842 489.437 619.239 495.263C607.418 501.198 595.734 507.09 583.066 511.048C558.026 518.872 530.753 520.972 505.002 515.51C492.834 512.929 481.151 508.552 470.497 502.109C459.563 495.498 448.904 488.389 438.127 481.525C415.84 467.333 393.553 453.14 371.268 438.946C348.558 424.482 325.846 410.022 303.137 395.558C280.521 381.153 257.905 366.748 235.288 352.346C224.028 345.175 212.792 337.966 201.521 330.813C190.579 323.87 179.231 317.795 166.187 316.078C154.483 314.538 139.421 316.827 135.798 330.016C132.335 342.621 141.478 355.887 149.825 364.431C159.124 373.949 170.76 379.949 182.267 386.338C193.885 392.789 205.503 399.24 217.121 405.691C240.636 418.748 264.152 431.804 287.667 444.86C299.051 451.181 310.692 457.187 321.806 463.974C332.855 470.72 343.338 478.872 351.535 488.961C359.181 498.372 365.398 510.467 363.661 522.939C362.845 528.799 360.227 534.21 356.37 538.674C352.046 543.678 346.34 547.18 340.975 550.944C329.594 558.929 318.209 566.907 306.825 574.887H294.867ZM287.419 568.219C297.115 560.89 306.812 553.562 316.506 546.23C319.311 544.109 322.117 541.988 324.921 539.865C327.669 537.785 330.558 535.789 332.956 533.296C337.374 528.704 339.715 522.575 339.273 516.199C338.356 502.955 327.797 491.951 317.81 484.297C307.191 476.159 294.833 470.521 283.039 464.326C270.49 457.734 257.939 451.145 245.389 444.556C220.558 431.518 195.723 418.487 170.895 405.444C158.524 398.946 146.28 392.532 135.104 384.064C124.091 375.72 114.055 365.964 105.889 354.794C97.9156 343.888 91.2272 331.123 89.7588 317.516C88.2882 303.888 93.2594 290.521 104.955 282.851C116.102 275.54 130.282 274.125 143.279 275.123C157.199 276.192 170.842 280.161 183.615 285.694C196.659 291.344 208.401 298.962 220.077 306.986C231.748 315.007 243.468 322.957 255.168 330.936C278.519 346.859 301.876 362.773 325.225 378.7C348.255 394.411 371.292 410.112 394.326 425.818C417.263 441.458 440.206 457.09 463.139 472.736C468.835 476.623 474.537 480.503 480.232 484.392C485.827 488.211 491.358 492.165 497.5 495.077C509.885 500.948 523.836 503.336 537.472 503.378C551.038 503.42 564.619 501.071 577.419 496.592C590.331 492.073 602.249 484.938 614.297 478.556C626.625 472.025 638.953 465.494 651.28 458.963C663.312 452.589 675.672 446.602 687.312 439.526C709.684 425.926 730.084 405.805 739.409 380.925C744.337 367.777 745.719 353.226 741.149 339.771C736.806 326.979 727.201 316.91 715.393 310.612C691.415 297.824 661.523 299.628 636.227 307.191C623.105 311.115 610.521 316.847 598.908 324.101C593.038 327.767 587.582 332.017 581.904 335.964C576.348 339.827 570.452 343.174 564.241 345.868C539.017 356.809 509.082 356.772 485.479 341.775C480.041 338.32 475.264 334.087 470.625 329.642C465.763 324.983 460.894 320.33 456.025 315.679C445.875 305.981 435.629 296.377 425.569 286.585C415.821 277.096 407.67 266.436 401.741 254.154C395.754 241.751 391.956 228.315 390.249 214.66C386.755 186.712 392.015 157.725 405.472 132.95C418.354 109.232 439.005 89.1283 464.871 80.3252C491.128 71.3894 520.174 75.5619 542.872 91.5039C554.237 99.4859 562.939 109.866 570.589 121.338C574.466 127.152 578.258 132.982 582.714 138.379C587.008 143.581 591.741 148.427 596.897 152.779C607.251 161.519 619.305 168.139 632.305 171.996C645.504 175.912 659.424 176.946 673.106 175.672C700.728 173.1 726.912 161.646 750.205 147.035C774.355 131.888 795.715 112.75 817.492 94.4756C839.349 76.1339 861.227 57.8167 883.104 39.5C904.967 21.1964 926.829 2.8924 948.689 -15.4131C970.641 -33.7949 992.595 -52.1748 1014.55 -70.5537C1036.54 -88.9642 1058.53 -107.376 1080.52 -125.785C1102.32 -144.026 1124.1 -162.271 1145.89 -180.514C1167.89 -198.928 1189.88 -217.343 1211.88 -235.758C1233.85 -254.156 1255.83 -272.553 1277.8 -290.951C1299.69 -309.279 1321.59 -327.608 1343.48 -345.936C1365.43 -364.315 1387.38 -382.694 1409.34 -401.074C1413.69 -404.716 1418.04 -408.359 1422.39 -412.001H1477.67C1456.59 -394.978 1435.51 -377.955 1414.43 -360.934C1392.07 -342.878 1369.71 -324.822 1347.35 -306.763C1325.04 -288.745 1302.73 -270.73 1280.42 -252.714C1258.15 -234.727 1235.88 -216.74 1213.6 -198.753C1191.33 -180.766 1169.06 -162.779 1146.78 -144.793C1124.56 -126.85 1102.35 -108.907 1080.13 -90.9648C1057.78 -72.9213 1035.43 -54.8819 1013.09 -36.835C990.915 -18.9236 968.738 -1.01508 946.562 16.8936C924.418 34.7757 902.274 52.6578 880.13 70.54C857.955 88.4471 835.78 106.355 813.605 124.262C802.706 133.063 791.942 142.058 780.742 150.479C769.51 158.926 757.782 166.754 745.551 173.684C721.251 187.45 694.406 197.943 666.385 200.316C638.377 202.688 610.249 196.073 587.27 179.61C576.046 171.57 566.35 161.531 558.141 150.463C554.003 144.884 550.269 139.003 545.832 133.648C541.47 128.385 536.339 123.759 530.677 119.93C519.114 112.11 505.303 107.848 491.331 107.965C477.693 108.079 464.343 112.399 452.88 119.708C429.671 134.506 414.938 160.689 410.731 187.521C406.514 214.427 412.291 243.779 429.665 265.206C434.009 270.563 438.893 275.443 443.807 280.272C448.781 285.162 453.71 290.096 458.648 295.021C463.591 299.949 468.535 304.876 473.479 309.804C478.217 314.526 482.777 319.557 487.806 323.972C498.267 333.157 511.36 338.533 525.26 339.373C538.533 340.175 551.89 336.942 563.651 330.842C569.601 327.756 574.874 323.815 580.213 319.806C585.675 315.703 591.258 311.803 597.125 308.298C609.269 301.042 622.267 295.214 635.788 291.047C661.506 283.121 690.514 280.52 716.349 289.403C729.101 293.788 741.109 301.26 749.34 312.093C757.835 323.274 761.865 336.985 761.301 350.97C760.182 378.679 743.68 403.818 724.154 422.451C714.126 432.021 702.856 440.251 690.824 447.123C679.371 453.664 667.434 459.427 655.723 465.49C643.222 471.962 630.72 478.433 618.221 484.907C606.055 491.208 594.063 497.989 581.066 502.458C555.935 511.1 527.479 512.909 501.92 504.983C495.324 502.938 488.982 500.194 483.051 496.652C477.247 493.187 471.692 489.286 466.057 485.557C454.432 477.863 442.81 470.163 431.185 462.47C408.072 447.174 384.964 431.872 361.854 416.572C338.342 401.006 314.829 385.441 291.316 369.875C267.764 354.283 244.211 338.691 220.659 323.099C209.295 315.575 198.18 307.638 185.678 302.067C173.297 296.551 159.724 292.761 146.084 292.861C133.534 292.954 119.381 296.821 112.814 308.49C106.03 320.548 109.98 335.252 116.142 346.675C122.572 358.596 132.053 368.836 142.57 377.277C153.627 386.151 166.205 392.498 178.635 399.178C203.357 412.464 228.079 425.749 252.8 439.037C265.15 445.676 277.504 452.309 289.853 458.95C301.989 465.477 314.552 471.515 325.479 480.007C335.708 487.957 345.831 498.516 348.95 511.481C350.408 517.539 349.993 523.92 347.188 529.535C344.109 535.7 338.782 539.598 333.359 543.567C319.094 554.009 304.826 564.448 290.559 574.887H278.6C281.539 572.664 284.479 570.441 287.419 568.219ZM262.862 574.469C268.059 570.352 273.257 566.238 278.455 562.124C288.502 554.173 298.547 546.221 308.59 538.265C311.547 535.922 314.56 533.634 317.454 531.214C320.042 529.05 322.292 526.585 323.635 523.452C326.357 517.103 324.588 510.068 321.179 504.359C313.847 492.082 300.855 485.041 288.527 478.763C262.176 465.342 235.818 451.933 209.466 438.513C196.281 431.798 183.094 425.087 169.908 418.375C156.659 411.63 143.331 405.122 130.938 396.856C106.871 380.804 84.8424 359.547 71.4766 333.627C64.8268 320.731 60.1897 306.055 61.6367 291.401C63.0256 277.334 70.5253 265.055 82.6396 257.689C94.3906 250.545 108.568 248.253 122.143 248.394C136.843 248.546 151.454 251.523 165.381 256.113C179.268 260.691 192.606 266.916 205.17 274.383C217.954 281.98 229.85 291.026 241.959 299.631C266.7 317.212 291.435 334.802 316.176 352.383C340.37 369.576 364.565 386.77 388.755 403.971C412.903 421.143 437.061 438.302 461.212 455.471C472.99 463.844 484.775 472.21 496.539 480.603C501.893 484.422 507.413 487.657 513.649 489.828C520.453 492.196 527.623 493.467 534.809 493.863C549.141 494.653 563.704 492.043 576.912 486.438C583.462 483.659 589.62 480.014 595.853 476.603C602.236 473.109 608.62 469.617 615.004 466.124C627.992 459.018 640.978 451.907 653.974 444.815C667.128 437.638 680.618 430.842 692.059 421.021C712.429 403.536 731.709 371.683 714.948 345.55C707.342 333.691 694.057 327.151 680.526 324.698C666.74 322.199 652.339 323.522 638.871 327.125C624.581 330.947 611.49 337.507 599.364 345.9C593.539 349.932 587.716 353.881 581.456 357.222C574.82 360.763 567.882 363.754 560.728 366.082C532.975 375.111 501.85 373.732 476.16 359.272C463.518 352.157 453.202 341.818 442.515 332.162C431.634 322.332 420.668 312.589 409.885 302.652C399.332 292.928 390.231 282.015 383.002 269.594C375.696 257.041 370.259 243.434 366.645 229.377C359.178 200.341 359.402 169.486 366.841 140.47C374.024 112.449 388.071 86.0519 408.352 65.29C428.577 44.5843 455.31 29.9949 484.371 27.207C514.017 24.3632 543.514 34.1674 566.294 53.167C577.505 62.5175 586.848 73.7873 594.379 86.2617C598.226 92.6337 601.881 99.1167 606.329 105.101C610.615 110.867 615.477 116.218 620.949 120.882C631.874 130.192 645.161 136.271 659.342 138.501C673.885 140.788 688.786 139.086 702.842 134.947C731.329 126.559 755.71 109.003 777.839 89.7441C800.661 69.8817 823.239 49.7386 845.94 29.7383C868.693 9.69299 891.442 -10.3557 914.191 -30.4043C936.768 -50.3005 959.344 -70.1966 981.921 -90.0928C1004.59 -110.073 1027.26 -130.055 1049.93 -150.034C1072.69 -170.087 1095.45 -190.141 1118.2 -210.194C1140.85 -230.155 1163.5 -250.116 1186.15 -270.077C1208.97 -290.183 1231.78 -310.29 1254.59 -330.396C1277.22 -350.342 1299.85 -370.288 1322.49 -390.231C1330.72 -397.488 1338.96 -404.745 1347.19 -412.001H1402.48C1400.09 -409.97 1397.69 -407.939 1395.3 -405.908C1372.32 -386.408 1349.33 -366.911 1326.35 -347.411C1303.07 -327.66 1279.79 -307.908 1256.51 -288.156C1233.48 -268.615 1210.45 -249.074 1187.42 -229.533C1164.32 -209.933 1141.22 -190.331 1118.12 -170.734C1095.02 -151.14 1071.92 -131.542 1048.82 -111.945C1025.76 -92.3757 1002.69 -72.8039 979.628 -53.2324C956.61 -33.7007 933.59 -14.1703 910.571 5.36035C887.568 24.878 864.562 44.3944 841.559 63.9121C830.137 73.6025 818.717 83.2936 807.296 92.9844C795.817 102.725 784.506 112.701 772.673 122.015C749.802 140.015 723.843 155.537 695.441 162.813C667.498 169.972 637.271 167.903 612.695 151.824C600.66 143.951 590.729 133.247 582.601 121.458C578.478 115.479 574.795 109.204 570.485 103.353C566.143 97.4571 561.122 92.0388 555.631 87.1973C533.694 67.8551 503.927 59.2507 475.139 65.0918C446.448 70.9132 422.188 89.7864 406.119 113.804C389.463 138.698 381.118 168.808 381.896 198.701C382.651 227.656 391.929 257.291 410.682 279.717C415.334 285.281 420.601 290.254 425.87 295.223C431.065 300.121 436.277 305.003 441.477 309.896C446.954 315.051 452.431 320.206 457.908 325.361C463.007 330.16 467.986 335.133 473.359 339.628C496.375 358.88 528.009 362.93 556.188 354.003C563.047 351.83 569.686 348.947 575.961 345.428C582.266 341.892 587.995 337.539 593.904 333.405C605.804 325.081 618.807 318.449 632.624 313.941C646.365 309.459 660.895 306.988 675.371 307.438C689.738 307.884 704.464 311.29 716.441 319.524C728.098 327.539 735.869 339.87 737.522 353.969C739.233 368.556 734.521 383.182 727.199 395.661C719.749 408.359 709.465 419.337 697.889 428.371C686.496 437.262 673.654 443.732 660.959 450.513C648.091 457.386 635.226 464.264 622.357 471.137C616.012 474.526 609.667 477.917 603.32 481.306C597.486 484.421 591.709 487.702 585.704 490.483C560.379 502.214 528.78 505.289 502.668 494.2C496.537 491.597 491.103 487.975 485.659 484.186C479.696 480.034 473.698 475.933 467.714 471.811C455.582 463.453 443.456 455.088 431.326 446.729C407.108 430.038 382.889 413.348 358.675 396.651C334.122 379.721 309.561 362.803 285.007 345.876C272.662 337.366 260.317 328.857 247.972 320.348C235.621 311.835 223.392 303.109 210.865 294.857C186.938 279.097 158.101 267.019 128.954 268.137C115.262 268.662 100.501 272.573 91.1689 283.25C81.1893 294.668 80.5746 310.585 84.6562 324.56C88.7344 338.524 96.8582 351.176 106.258 362.152C115.563 373.019 126.457 382.502 138.247 390.586C150.464 398.963 163.833 405.404 176.943 412.231C190.096 419.081 203.25 425.929 216.403 432.778C242.761 446.503 269.101 460.264 295.479 473.953C308.055 480.48 320.59 487.994 328.988 499.74C332.97 505.309 335.978 512.053 335.502 519.035C335.034 525.89 331.089 531.325 325.832 535.468C314.72 544.226 303.34 552.67 292.099 561.264C286.162 565.802 280.228 570.345 274.294 574.887H262.335C262.511 574.747 262.686 574.608 262.862 574.469ZM251.963 569.989C257.46 565.421 262.956 560.851 268.453 556.283C279.186 547.364 289.924 538.45 300.65 529.523C303.479 527.17 306.779 524.903 308.719 521.704C310.698 518.44 310.916 514.513 309.852 510.901C307.855 504.126 302.277 498.724 296.704 494.7C290.788 490.428 284.054 487.426 277.538 484.204C270.62 480.784 263.701 477.364 256.781 473.946C228.69 460.072 200.603 446.19 172.514 432.313C158.86 425.568 144.963 419.178 131.786 411.522C118.187 403.621 105.275 394.518 93.3105 384.309C69.9047 364.336 48.7098 339.358 37.833 310.242C32.399 295.696 29.6838 279.609 33.2129 264.276C36.6683 249.265 46.317 236.954 59.7305 229.49C73.2444 221.971 89.0275 219.367 104.34 219.366C120.201 219.366 136.002 222.135 151.2 226.559C166.416 230.987 181.129 237.128 195.145 244.506C209.438 252.03 222.711 261.101 235.686 270.687C261.246 289.571 286.717 308.578 312.235 327.52C337.681 346.407 363.127 365.295 388.572 384.183C413.63 402.783 438.688 421.383 463.744 439.985C476.157 449.201 488.572 458.414 500.986 467.627C506.737 471.895 512.315 476.718 518.916 479.635C525.949 482.742 533.743 484.046 541.4 484.095C548.34 484.139 555.294 483.138 561.948 481.174C569.399 478.975 576.081 475.337 582.778 471.489C596.328 463.706 609.978 456.092 623.58 448.4C637.202 440.698 650.992 433.226 664.457 425.253C677.453 417.558 689.266 406.804 695.487 392.792C698.561 385.87 700.103 378.094 698.682 370.572C697.378 363.675 693.66 357.455 688.205 353.05C676.818 343.853 660.829 342.534 646.844 344.669C639.11 345.85 631.532 348.134 624.403 351.352C617.42 354.504 611.17 358.758 604.817 362.985C591.843 371.62 577.533 378.402 562.584 382.82C533.056 391.547 500.687 390.742 472.441 377.953C465.339 374.737 458.542 370.829 452.207 366.285C445.877 361.745 440.09 356.457 434.184 351.392C422.291 341.193 410.39 331.003 398.505 320.796C386.923 310.849 376.441 300.058 367.653 287.532C358.779 274.882 351.617 261.061 346.125 246.628C334.859 217.019 330.554 184.865 332.791 153.306C335.053 121.401 343.973 89.8344 359.334 61.7402C374.288 34.3908 395.509 10.1511 422.009 -6.50781C448.381 -23.0865 479.744 -31.3727 510.866 -28.0195C542.389 -24.623 571.616 -9.59314 593.9 12.7617C604.822 23.7182 614.446 36.2434 621.854 49.834C625.588 56.6863 628.921 63.7931 633.272 70.29C637.387 76.4326 642.382 82.0109 648.257 86.5215C660.635 96.0258 676.092 99.7831 691.527 98.2988C706.972 96.8134 721.599 90.6707 734.748 82.6592C748.252 74.4316 760.125 64.1397 771.677 53.4199C783.472 42.4745 795.248 31.5081 807.023 20.542C830.618 -1.43018 854.229 -23.3853 877.835 -45.3447C901.439 -67.3018 925.046 -89.2549 948.649 -111.212C972.231 -133.148 995.809 -155.088 1019.39 -177.022C1042.96 -198.941 1066.52 -220.861 1090.08 -242.784C1113.78 -264.838 1137.49 -286.886 1161.2 -308.936C1184.72 -330.812 1208.24 -352.689 1231.76 -374.567C1245.17 -387.045 1258.59 -399.523 1272 -412.001H1327.29C1323.31 -408.451 1319.34 -404.901 1315.37 -401.352C1291.45 -379.971 1267.52 -358.589 1243.6 -337.21C1219.49 -315.663 1195.38 -294.114 1171.27 -272.563C1147.39 -251.224 1123.52 -229.884 1099.64 -208.546C1075.7 -187.147 1051.75 -165.749 1027.8 -144.354C1003.88 -122.977 979.964 -101.592 956.044 -80.2109C931.897 -58.6267 907.744 -37.048 883.597 -15.4639C859.645 5.94482 835.693 27.3528 811.738 48.7578C799.829 59.3992 788.002 70.135 776.072 80.752C764.293 91.2344 751.86 101.016 738.369 109.219C712.554 124.915 680.349 135.332 650.58 125.034C636.22 120.066 624.086 110.42 614.889 98.4424C610.015 92.0949 606.139 85.1029 602.109 78.2109C598.299 71.6949 594.201 65.3945 589.46 59.5107C570.124 35.5148 542.327 18.2836 511.628 13.8965C480.239 9.41089 448.516 18.5531 423.002 37.0195C397.539 55.4492 378.532 81.8352 367.037 110.925C355.316 140.586 351.116 173.12 354.991 204.779C358.754 235.516 370.128 265.87 389.815 290.003C399.696 302.115 411.828 312.071 423.453 322.43C429.315 327.653 435.178 332.877 441.04 338.101C447.002 343.413 452.833 348.928 459.054 353.94C483.467 373.612 516.076 380.053 546.569 374.323C562.057 371.413 577.105 365.59 590.524 357.329C597.161 353.243 603.365 348.497 610.055 344.496C616.883 340.412 624.125 337.053 631.665 334.509C646.11 329.635 661.913 327.448 677.033 330.089C691.591 332.632 705.938 340.493 712.139 354.508C718.529 368.952 714.421 385.357 706.587 398.349C698.79 411.279 687.301 421.866 674.5 429.743C668.078 433.695 661.38 437.207 654.78 440.849C648.037 444.569 641.294 448.29 634.552 452.011C620.84 459.578 607.127 467.144 593.416 474.712C587.036 478.234 580.735 482.018 573.979 484.787C566.812 487.724 559.239 489.711 551.559 490.705C537.014 492.588 521.193 491.15 508.115 484.116C501.671 480.65 495.872 475.935 489.945 471.675C483.707 467.19 477.468 462.704 471.229 458.219C458.495 449.062 445.758 439.909 433.022 430.754C407.673 412.532 382.321 394.313 356.975 376.087C331.066 357.457 305.151 338.835 279.24 320.208C266.304 310.909 253.355 301.626 240.432 292.31C227.566 283.035 214.833 273.494 200.983 265.706C174.323 250.714 143.253 239.814 112.306 241.057C97.4604 241.653 81.9663 245.36 70.2764 254.974C58.3638 264.77 53.0717 279.703 53.7266 294.867C54.4072 310.632 60.6843 325.786 68.749 339.151C76.9216 352.695 87.2844 364.889 98.7812 375.723C110.11 386.398 122.633 395.811 135.944 403.874C149.41 412.031 163.776 418.701 177.818 425.793C206.001 440.027 234.186 454.257 262.369 468.49C269.369 472.025 276.368 475.563 283.367 479.099C290.039 482.469 296.851 485.663 302.984 489.973C313.609 497.437 328.231 513.217 317.567 526.485C315.118 529.532 311.765 531.798 308.738 534.227C305.697 536.667 302.655 539.108 299.612 541.547C293.963 546.076 288.314 550.606 282.664 555.136C274.452 561.719 266.24 568.303 258.028 574.887H246.066C248.032 573.254 249.998 571.622 251.963 569.989ZM231.51 573.392C237.017 568.576 242.524 563.76 248.031 558.945C259.25 549.139 270.471 539.334 281.684 529.521C284.888 526.717 288.104 523.925 291.301 521.111C294.462 518.328 296.636 515.235 295.512 510.85C293.567 503.261 285.572 498.576 279.065 495.355C263.953 487.874 248.654 480.745 233.451 473.45C202.746 458.717 171.963 444.133 141.334 429.243C111.035 414.513 82.9371 395.019 58.9453 371.34C35.115 347.82 13.8246 319.215 4.35645 286.704C-0.289673 270.751 -1.8324 253.426 2.7832 237.276C7.2804 221.54 17.7146 208.583 31.7598 200.277C45.9559 191.883 62.5701 188.33 78.9062 187.554C95.7432 186.754 112.651 188.834 129.031 192.675C162.483 200.518 194.492 215.539 222.809 234.882C236.859 244.48 250.134 255.176 263.563 265.608C277.02 276.062 290.479 286.514 303.937 296.967C331.07 318.041 358.198 339.122 385.335 360.191C411.973 380.873 438.604 401.564 465.237 422.251C478.558 432.597 491.877 442.945 505.198 453.29C511.092 457.867 516.946 462.5 522.876 467.029C529.113 471.793 536.78 473.707 544.559 473.611C552.895 473.509 560.86 471.112 568.058 466.973C575.236 462.845 582.347 458.592 589.494 454.408C604.034 445.897 618.577 437.388 633.117 428.877C640.412 424.607 647.777 420.438 654.996 416.043C662.019 411.767 668.39 406.574 672.851 399.571C677.089 392.916 679.599 384.349 676.57 376.704C673.712 369.49 666.726 365.112 659.389 363.495C651.505 361.758 643.078 362.696 635.425 365.053C627.9 367.37 621.421 371.507 614.849 375.717C600.58 384.856 585.182 392.122 568.956 397.057C536.311 406.984 500.673 407.09 468.653 394.736C460.802 391.707 453.219 387.969 446.044 383.572C438.879 379.181 432.304 374.009 425.8 368.708C412.624 357.969 399.458 347.219 386.287 336.475C373.188 325.789 361.089 314.218 350.756 300.795C340.521 287.499 331.956 272.939 325.021 257.671C310.949 226.692 303.535 192.797 302.307 158.843C301.057 124.321 306.23 89.5394 317.492 56.8799C328.427 25.169 345.404 -4.6062 367.845 -29.6016C390.311 -54.6255 418.855 -74.5507 451.055 -84.7627C483.413 -95.0247 518.55 -94.7599 550.606 -83.4678C582.491 -72.2363 609.94 -50.8423 630.577 -24.2803C641.201 -10.6055 649.587 4.34607 656.912 19.9951C660.314 27.2618 663.814 34.7119 669.396 40.5977C674.729 46.2223 681.615 50.1553 689.202 51.7881C705.028 55.1935 721.371 48.8461 734.405 40.166C748.543 30.7509 760.267 17.9957 772.296 6.13379C796.992 -18.221 821.707 -42.5578 846.419 -66.8965C870.899 -91.0062 895.374 -115.12 919.856 -139.228C944.543 -163.536 969.226 -187.848 993.909 -212.159C1018.55 -236.433 1043.19 -260.712 1067.84 -284.985C1092.47 -309.238 1117.09 -333.49 1141.72 -357.746C1160.08 -375.832 1178.44 -393.917 1196.8 -412.001H1252.09C1246.82 -407.028 1241.55 -402.056 1236.29 -397.083C1211.17 -373.371 1186.06 -349.661 1160.94 -325.952C1135.71 -302.128 1110.47 -278.303 1085.23 -254.475C1060.05 -230.696 1034.87 -206.916 1009.68 -183.14C984.71 -159.562 959.733 -135.988 934.762 -112.407C909.589 -88.6363 884.412 -64.8689 859.237 -41.1006C834.054 -17.3245 808.871 6.45306 783.684 30.2246C759.606 52.9484 734.969 79.1823 700.981 85.7266C685.07 88.7904 668.511 86.196 655.39 76.3223C649.077 71.5725 643.881 65.4904 639.765 58.7734C635.394 51.6422 632.053 43.944 627.968 36.6543C611.758 7.73059 586.743 -17.1337 556.652 -31.3535C525.217 -46.2086 489.086 -48.6381 455.875 -38.4277C423.622 -28.5119 395.553 -7.54218 374.403 18.4678C352.887 44.9285 338.193 76.7722 330.581 109.929C322.968 143.089 322.277 177.801 329.023 211.171C335.671 244.054 349.562 275.804 371.296 301.547C382.214 314.479 395.228 325.065 408.101 335.956C414.623 341.474 421.145 346.993 427.667 352.512C434.149 357.996 440.486 363.751 447.347 368.763C474.342 388.483 508.207 396.044 541.191 391.663C558.345 389.385 575.015 384.025 590.45 376.239C597.772 372.546 604.683 368.268 611.515 363.748C618.629 359.041 626.054 355.039 634.217 352.458C648.827 347.837 666.71 346.625 680.237 355.046C686.898 359.192 691.704 365.767 693.077 373.545C694.514 381.688 692.189 390.009 688.271 397.14C684.335 404.306 678.751 410.515 672.438 415.671C666.02 420.912 658.699 424.762 651.532 428.852C636.821 437.248 622.108 445.642 607.396 454.038C600.262 458.11 593.126 462.181 585.99 466.253C579.33 470.054 572.746 474.311 565.568 477.081C551.191 482.629 533.355 483.524 519.387 476.274C516.021 474.528 513.02 472.224 510.022 469.924C506.752 467.415 503.438 464.961 500.142 462.485C493.438 457.451 486.735 452.414 480.031 447.38C466.443 437.176 452.855 426.972 439.27 416.766C412.207 396.434 385.139 376.109 358.074 355.781C330.871 335.349 303.668 314.915 276.465 294.482C262.834 284.245 249.273 273.909 235.583 263.752C221.854 253.566 207.649 244.155 192.429 236.329C162.83 221.11 129.251 210.265 95.6475 211.266C79.4255 211.749 62.7369 215.222 48.9883 224.202C35.1655 233.231 26.3984 247.467 24.1201 263.772C21.7975 280.393 25.7692 297.299 32.3232 312.539C39.0055 328.077 48.4448 342.353 59.2373 355.332C80.6267 381.054 107.625 402.138 137.048 417.938C152.016 425.976 167.527 433.087 182.78 440.564C198.026 448.039 213.274 455.512 228.52 462.986C243.51 470.335 258.501 477.683 273.49 485.034C280.521 488.482 287.928 491.571 294.272 496.223C300.213 500.579 306.967 507.299 306.625 515.281C306.449 519.391 304.051 522.439 301.035 525.008C297.797 527.765 294.51 530.468 291.257 533.208C285.17 538.335 279.083 543.462 272.994 548.587C262.581 557.351 252.172 566.119 241.762 574.887H229.82C230.382 574.387 230.944 573.887 231.51 573.392Z" fill="url(#paint0_linear_87_137)"/>
<defs>
<linearGradient id="paint0_linear_87_137" x1="614.891" y1="248.943" x2="776.433" y2="-412.001" gradientUnits="userSpaceOnUse">
<stop stop-color="#D97710" stop-opacity="0"/>
<stop offset="1" stop-color="#D97710"/>
</linearGradient>
</defs>
</svg>
